<svg id="Layer_2" data-name="Layer 2" xmlns="http://www.w3.org/2000/svg" xmlns:xlink="http://www.w3.org/1999/xlink" viewBox="0 0 512 512"><defs><style>.cls-1,.cls-8{fill:none;}.cls-2{font-size:14px;font-family:HiraginoSans-W9-83pv-RKSJ-H, Hiragino Sans;}.cls-3,.cls-5{font-size:48px;}.cls-4{font-size:7px;}.cls-5{font-family:CassandraPersonalUse-Regular, Cassandra Personal Use;}.cls-6{clip-path:url(#clip-path);}.cls-7{fill-opacity:0;}.cls-7,.cls-9{fill-rule:evenodd;}.cls-8,.cls-9{stroke:#000;stroke-width:3px;}.cls-8{stroke-linejoin:round;}.cls-9{stroke-miterlimit:10;}</style><clipPath id="clip-path"><rect class="cls-1" x="407.08" y="96.78" width="96.53" height="136.72"/></clipPath></defs><title>logoArtboard 1</title><text class="cls-2" transform="translate(260.85 110.59)"> <tspan class="cls-3"><tspan x="-72.28" y="115.2">mgh</tspan></tspan><tspan class="cls-4"><tspan x="-12.94" y="123.6">.</tspan></tspan><tspan class="cls-5"><tspan x="-94.5" y="181.2">physics</tspan></tspan><tspan class="cls-3"><tspan x="-69.54" y="249.6">club</tspan></tspan></text><g class="cls-6"><path class="cls-7" d="M407.08,96.78H503.6V233.5H407.08Z"/><path class="cls-7" d="M450.52,120.29h0A19.27,19.27,0,0,1,469.79,101h0a19.27,19.27,0,0,1,19.26,19.27h0a19.26,19.26,0,0,1-19.26,19.27h0A19.27,19.27,0,0,1,450.52,120.29Z"/><path class="cls-8" d="M450.52,120.29h0A19.27,19.27,0,0,1,469.79,101h0a19.27,19.27,0,0,1,19.26,19.27h0a19.26,19.26,0,0,1-19.26,19.27h0A19.27,19.27,0,0,1,450.52,120.29Z"/><path class="cls-7" d="M412,210h0a19.27,19.27,0,0,1,19.27-19.27h0A19.27,19.27,0,0,1,450.52,210h0a19.26,19.26,0,0,1-19.26,19.26h0A19.26,19.26,0,0,1,412,210Z"/><path class="cls-8" d="M412,210h0a19.27,19.27,0,0,1,19.27-19.27h0A19.27,19.27,0,0,1,450.52,210h0a19.26,19.26,0,0,1-19.26,19.26h0A19.26,19.26,0,0,1,412,210Z"/><path class="cls-8" d="M450.52,120.29V210"/><path class="cls-8" d="M489.05,120.29v70.44"/><path class="cls-8" d="M412,210V127"/><path class="cls-9" d="M413.84,127,412,121.92,410.15,127Z"/><path class="cls-7" d="M479.42,190.73h19.27V210H479.42Z"/><path class="cls-8" d="M479.42,190.73h19.27V210H479.42Z"/><path class="cls-8" d="M489.05,200.37v14"/><path class="cls-9" d="M487.21,214.4l1.84,5.07,1.85-5.07Z"/><path class="cls-8" d="M498.69,149.32v14"/><path class="cls-9" d="M496.84,163.36l1.85,5.06,1.84-5.06Z"/></g><path d="M170.79,391a2,2,0,0,0-.42,3.48l24.26,18.19.21.1a2.12,2.12,0,0,0,.37.18,1.86,1.86,0,0,0,.41.08l.23.05h24.26V437.5a13.87,13.87,0,0,0-7.69,3.72,3,3,0,0,0-.56.56,14.06,14.06,0,0,0,0,19.41,2.75,2.75,0,0,0,.56.57,13.87,13.87,0,0,0,7.69,3.72V489.9H139.24V461.6h4a2,2,0,0,0,0-4.05h-4V445.42h10.11a2,2,0,0,0,0-4H139.24v-28.3h30.32a2,2,0,1,0,0-4.05H139.24a4.07,4.07,0,0,0-4.05,4.05v3.11a12,12,0,0,0-8.08-3.11,12.13,12.13,0,1,0,0,24.26,12,12,0,0,0,8.08-3.12v7.16h-10.1a2,2,0,1,0,0,4h10.1v12.13h-4a2,2,0,0,0,0,4.05h4v7.15a12,12,0,0,0-8.08-3.11,12.13,12.13,0,0,0,0,24.26,12,12,0,0,0,8.08-3.11v3.11a4.07,4.07,0,0,0,4.05,4.05h80.87a4.06,4.06,0,0,0,4-4.05V465.48a13.81,13.81,0,0,0,7.68-3.72,3.88,3.88,0,0,0,.31-.26,14.17,14.17,0,0,0,0-20,3.88,3.88,0,0,0-.31-.26,13.81,13.81,0,0,0-7.68-3.72V413.08a4,4,0,0,0-4-4.05H196.52L172.8,391.24A2,2,0,0,0,170.79,391Zm-45.7,38.25v-2h-2a2,2,0,0,1,0-4.05h2v-2a2,2,0,1,1,4,0v2h2a2,2,0,0,1,0,4.05h-2v2a2,2,0,0,1-4,0Zm0,52.57v-8.09a2,2,0,0,1,4,0v8.09a2,2,0,0,1-4,0ZM227.71,443a10.73,10.73,0,0,1,2.87,2.87L225,451.49l5.58,5.58a10.88,10.88,0,0,1-2.87,2.87l-5.58-5.58-5.58,5.58a10.73,10.73,0,0,1-2.87-2.87l5.58-5.58-5.58-5.58a10.59,10.59,0,0,1,2.87-2.87l5.58,5.58Z"/><path d="M67.88,369.83V310.45a2.17,2.17,0,0,0,1.48.58,2.19,2.19,0,0,0,1.77-3.48l-1-1.4H92.65A2.19,2.19,0,0,0,94.84,304v-8.33H110a2.2,2.2,0,0,0,0-4.39H11.77a2.2,2.2,0,0,0,0,4.39H36.54V304a2.19,2.19,0,0,0,2.19,2.19H61.27l-1,1.4a2.19,2.19,0,0,0,3.25,2.9v59.38a11,11,0,1,0,4.38,0Zm-27-74.2H90.46v6.13H40.92Zm24.77,91.51a6.58,6.58,0,1,1,6.58-6.57A6.57,6.57,0,0,1,65.69,387.14Z"/><path d="M112.56,355.11a10.9,10.9,0,0,0-6.26.85l-.12-.18a2.19,2.19,0,0,0-3.55,2.58l.13.18a10.82,10.82,0,0,0-2.74,5.68,10.94,10.94,0,0,0,.52,5.45l-.64.34a2.19,2.19,0,0,0,1,4.13,2.16,2.16,0,0,0,1-.25c.31-.15.61-.32.91-.48a10.86,10.86,0,0,0,6.3,3.35,11.34,11.34,0,0,0,1.74.14,11,11,0,0,0,1.69-21.79Zm2.15,16.15a6.58,6.58,0,1,1-3.88-11.9,7.28,7.28,0,0,1,1,.08,6.58,6.58,0,0,1,2.84,11.82Z"/><path d="M91,338.63a2.19,2.19,0,0,0-.48,3.06l1.29,1.77a2.19,2.19,0,1,0,3.54-2.57l-1.28-1.78A2.2,2.2,0,0,0,91,338.63Z"/><path d="M100.92,352.28a2.19,2.19,0,0,0,.49-3.06l-1.29-1.77A2.19,2.19,0,1,0,96.57,350l1.29,1.78a2.19,2.19,0,0,0,1.78.9A2.11,2.11,0,0,0,100.92,352.28Z"/><path d="M75.9,314.11a2.19,2.19,0,0,0-3.55,2.58l1.29,1.77a2.19,2.19,0,1,0,3.55-2.58Z"/><path d="M89.3,332.55,88,330.78a2.19,2.19,0,1,0-3.55,2.58l1.29,1.77a2.19,2.19,0,0,0,1.78.9,2.11,2.11,0,0,0,1.28-.42A2.19,2.19,0,0,0,89.3,332.55Z"/><path d="M81.47,327.7a2.19,2.19,0,0,0,1.77-3.48L82,322.45A2.19,2.19,0,1,0,78.41,325l1.29,1.78A2.2,2.2,0,0,0,81.47,327.7Z"/><path d="M45.63,335.13l1.29-1.77a2.19,2.19,0,1,0-3.55-2.58l-1.28,1.77a2.18,2.18,0,0,0,.48,3.06,2.14,2.14,0,0,0,1.29.42A2.19,2.19,0,0,0,45.63,335.13Z"/><path d="M36.51,344a2.19,2.19,0,0,0,3.07-.49l1.29-1.77a2.19,2.19,0,0,0-3.55-2.58L36,340.89A2.2,2.2,0,0,0,36.51,344Z"/><path d="M34.32,347a2.19,2.19,0,0,0-3.06.49L30,349.22a2.18,2.18,0,0,0,.48,3.06,2.14,2.14,0,0,0,1.29.42,2.19,2.19,0,0,0,1.77-.9L34.81,350A2.19,2.19,0,0,0,34.32,347Z"/><path d="M57.74,318.46,59,316.69a2.19,2.19,0,0,0-3.55-2.58l-1.28,1.77a2.19,2.19,0,0,0,3.54,2.58Z"/><path d="M52.49,322a2.19,2.19,0,0,0-3.06.49l-1.29,1.77a2.19,2.19,0,0,0,.49,3.06,2.16,2.16,0,0,0,1.28.42,2.22,2.22,0,0,0,1.78-.9L53,325A2.19,2.19,0,0,0,52.49,322Z"/><path d="M93.13,373.11c-.85.34-1.72.67-2.59,1a2.19,2.19,0,0,0,.74,4.25,2.33,2.33,0,0,0,.73-.12c.92-.33,1.84-.68,2.74-1a2.19,2.19,0,1,0-1.62-4.07Z"/><path d="M83.41,376.23c-.89.22-1.8.42-2.7.61a2.19,2.19,0,0,0,.44,4.34,2.3,2.3,0,0,0,.45-.05c1-.2,1.91-.41,2.85-.65a2.19,2.19,0,1,0-1-4.25Z"/><path d="M31.48,370l-.63-.34a11,11,0,0,0-2.22-11.13l.12-.18a2.19,2.19,0,1,0-3.54-2.58l-.13.18a11,11,0,1,0-4.56,20.94,11.31,11.31,0,0,0,1.73-.14,10.86,10.86,0,0,0,6.3-3.35l.91.48a2.16,2.16,0,0,0,1,.25,2.19,2.19,0,0,0,1-4.13Zm-9.91,2.42a6.58,6.58,0,1,1,2.83-11.81,6.57,6.57,0,0,1-2.83,11.81Z"/><path d="M40.84,374.09c-.86-.31-1.73-.64-2.59-1a2.19,2.19,0,0,0-1.62,4.07c.9.36,1.83.71,2.74,1a2.39,2.39,0,0,0,.74.12,2.19,2.19,0,0,0,.73-4.25Z"/><path d="M50.67,376.84c-.9-.19-1.81-.39-2.69-.61a2.19,2.19,0,1,0-1,4.25c.94.24,1.9.45,2.86.65a2.19,2.19,0,1,0,.88-4.29Z"/><path d="M119.61,295.63a2.19,2.19,0,0,0,2.19-2.2,2.21,2.21,0,0,0-.64-1.55,2.19,2.19,0,0,0-3.74,1.55,2.19,2.19,0,0,0,2.19,2.2Z"/><path d="M509.37,336.78a3.15,3.15,0,0,0-3.52-2.84L467.31,338l40.54-24.57a3.2,3.2,0,1,0-3.32-5.47l-35.31,21.41L508.61,284a3.2,3.2,0,0,0-4.84-4.19l-49.85,57.41-18.53-31.36a3.34,3.34,0,0,0-5.51,0l-19.21,32.52-50.06-27.3a3.2,3.2,0,0,0-3.06,5.61l49.86,27.2-19.1,32.33a3.2,3.2,0,0,0,2.75,4.83h83.15a3.2,3.2,0,0,0,2.75-4.83l-18.25-30.89,47.82-5A3.2,3.2,0,0,0,509.37,336.78Zm-40.76,37.87H396.66l36-60.87,18,30.54h0Z"/><path d="M321.94,66.73l-1.62-.53a1.61,1.61,0,1,0-1,3.07l1.61.53a15.85,15.85,0,0,0,0,6.53l-1.61.52a1.62,1.62,0,0,0,.5,3.16,1.8,1.8,0,0,0,.5-.08l1.62-.53a15.62,15.62,0,0,0,3.84,5.28l-1,1.38a1.63,1.63,0,0,0,.36,2.26,1.61,1.61,0,0,0,2.26-.36l1-1.38a15.47,15.47,0,0,0,6.21,2v1.7a1.62,1.62,0,1,0,3.23,0V88.6a15.48,15.48,0,0,0,6.2-2L345,88a1.6,1.6,0,0,0,1.31.67,1.56,1.56,0,0,0,.94-.31,1.61,1.61,0,0,0,.36-2.26l-1-1.38a15.76,15.76,0,0,0,3.84-5.28l1.62.53a1.69,1.69,0,0,0,.5.08,1.62,1.62,0,0,0,.5-3.16l-1.62-.52a15.4,15.4,0,0,0,0-6.53l1.62-.53a1.61,1.61,0,0,0-1-3.07l-1.62.53a15.76,15.76,0,0,0-3.84-5.28l1-1.38a1.61,1.61,0,1,0-2.61-1.9l-1,1.38a15.65,15.65,0,0,0-6.2-2V55.83a1.62,1.62,0,1,0-3.23,0v1.69a15.64,15.64,0,0,0-6.21,2l-1-1.38a1.62,1.62,0,1,0-2.62,1.9l1,1.38a15.62,15.62,0,0,0-3.84,5.28Zm14.27-6.06a12.4,12.4,0,1,1-12.39,12.39A12.41,12.41,0,0,1,336.21,60.67Z"/><path d="M372,37.26a50.64,50.64,0,1,0-11.09,80,1.62,1.62,0,1,0-1.58-2.82A47.35,47.35,0,1,1,377.6,96.21a1.61,1.61,0,1,0,2.81,1.58A50.66,50.66,0,0,0,372,37.26Z"/><path d="M370.88,99.11a8.62,8.62,0,1,0,8.62,8.62A8.63,8.63,0,0,0,370.88,99.11Zm0,14a5.39,5.39,0,1,1,5.39-5.39A5.4,5.4,0,0,1,370.88,113.12Z"/><path d="M311.64,97.64a34.75,34.75,0,1,0,11.81-56.9,1.46,1.46,0,0,0-.55.36,1.62,1.62,0,0,0,1.77,2.63,31.51,31.51,0,1,1-17.78,17.76,1.62,1.62,0,0,0-3-1.19A34.77,34.77,0,0,0,311.64,97.64Z"/><path d="M312.78,41a8.62,8.62,0,1,0,6.1,2.52,8.55,8.55,0,0,0-6.1-2.52Zm3.81,12.43a5.39,5.39,0,1,1,0-7.62A5.36,5.36,0,0,1,316.59,53.45Z"/><path d="M296.64,454.79a2.22,2.22,0,1,0,2.22,2.22A2.21,2.21,0,0,0,296.64,454.79Z"/><path d="M367.5,412.28H345.36a2.21,2.21,0,0,0-2.21,2.21V457a15.51,15.51,0,0,1-31,0V414.49a2.21,2.21,0,0,0-2.21-2.21H287.79a2.21,2.21,0,0,0-2.22,2.21V457a42.08,42.08,0,0,0,84.15,0V414.49A2.21,2.21,0,0,0,367.5,412.28ZM290,416.71h17.72v15.94H290ZM365.29,457A37.65,37.65,0,0,1,290,457V437.08h17.72V457a19.93,19.93,0,1,0,39.85,0V437.08h17.72Zm0-24.36H347.57V416.7h17.72Z"/><path d="M310.27,479.94A29,29,0,0,1,300,465.15a2.22,2.22,0,1,0-4.25,1.25,33.52,33.52,0,0,0,11.81,17.07,2.22,2.22,0,0,0,2.68-3.53Z"/><path d="M303,395.61a2.24,2.24,0,0,0-1.89-1.05H295.8l2.82-5.65a2.21,2.21,0,0,0-4-2l-4.43,8.86a2.21,2.21,0,0,0,2,3.2h5.28l-2.83,5.65a2.21,2.21,0,1,0,4,2l4.43-8.85A2.22,2.22,0,0,0,303,395.61Z"/><path d="M365,395.61a2.24,2.24,0,0,0-1.89-1.05H357.8l2.83-5.65a2.22,2.22,0,0,0-4-2l-4.42,8.86a2.2,2.2,0,0,0,.09,2.15,2.24,2.24,0,0,0,1.89,1.05h5.27l-2.83,5.65a2.22,2.22,0,0,0,4,2l4.43-8.85A2.24,2.24,0,0,0,365,395.61Z"/><path d="M123.89,133.3H10.57a2.3,2.3,0,0,0-2.31,2.3v106a2.3,2.3,0,0,0,2.31,2.3H123.89a2.3,2.3,0,0,0,2.31-2.3v-106A2.3,2.3,0,0,0,123.89,133.3Zm-2.3,106H12.87v-4.61H121.59Zm0-9.22H12.87V147.12h15.2v2.3a6.93,6.93,0,0,0,4.61,6.52V198A11.52,11.52,0,1,0,44.2,216.21a11.49,11.49,0,0,0,18.42,0A11.51,11.51,0,1,0,74.14,198V155.94a6.93,6.93,0,0,0,4.61-6.52v-2.3h4.6v2.3a6.93,6.93,0,0,0,5,6.65l9.89,43.31a11.49,11.49,0,1,0,4.38-1.49L93,155.76a6.93,6.93,0,0,0,4.15-6.34v-2.3h24.42Zm-70.48-74.1V198a11.53,11.53,0,0,0-6.91,4.38A11.58,11.58,0,0,0,37.28,198V155.94a6.91,6.91,0,0,0,4.61-6.52v-2.3H46.5v2.3A6.91,6.91,0,0,0,51.11,155.94Zm18.42,0V198a11.53,11.53,0,0,0-6.91,4.38A11.53,11.53,0,0,0,55.71,198V155.94a6.93,6.93,0,0,0,4.61-6.52v-2.3h4.61v2.3A6.92,6.92,0,0,0,69.53,155.94Zm2.31,46.46a6.91,6.91,0,1,1-6.91,6.91A6.92,6.92,0,0,1,71.84,202.4Zm-2.31-53v-2.3h4.61v2.3a2.31,2.31,0,1,1-4.61,0Zm-13.82,0a2.3,2.3,0,1,1-4.6,0v-2.3h4.6Zm-2.3,53a6.91,6.91,0,1,1-6.91,6.91A6.92,6.92,0,0,1,53.41,202.4Zm-16.13-53a2.3,2.3,0,1,1-4.6,0v-2.3h4.6Zm-2.3,53a6.91,6.91,0,1,1-6.91,6.91A6.92,6.92,0,0,1,35,202.4Zm53-53v-2.3h4.61v2.3a2.31,2.31,0,1,1-4.61,0Zm16.12,53a6.91,6.91,0,1,1-6.91,6.91A6.92,6.92,0,0,1,104.08,202.4Zm17.51-59.89H12.87v-4.6H121.59Z"/><path d="M237,62.64A12.74,12.74,0,0,0,237.1,56c-2.62-9.76-16.66-12.25-26.75-12.6.1-16.58-4-26.8-11.79-28.87s-17.91,4.88-27.05,18.77c-9.55-5.44-17.95-8.13-24-7.71a9,9,0,1,0-12.6,12.59c-.42,6.08,2.27,14.47,7.72,24-13.9,9.14-20.89,19.16-18.78,27.05,2,7.37,11.45,11.52,26.79,11.77,0,1.32,0,2.56,0,3.72a9,9,0,0,0,3.06,17.52,9.28,9.28,0,0,0,1.58-.14c2.23,3.83,5.19,6.32,8.64,7.24,10.32,2.77,21.26-10,27.12-18.88,9.46,5.26,25.15,11.7,32.78,4.06s1.17-23.39-4.1-32.86a74,74,0,0,0,6.84-5,9,9,0,0,0,10.43-14ZM157.64,83c2,2.23,4,4.4,6.06,6.47s3.91,3.8,6,5.61a126.13,126.13,0,0,1-14.22,1.37A125.89,125.89,0,0,1,157.64,83Zm-2.33-9.92c-2.4-3.13-4.59-6.28-6.56-9.42a104.61,104.61,0,0,1,10.77-5.53q-1.25,3.66-2.24,7.37C156.54,68.27,155.89,70.75,155.31,73.07Zm11.58,13.2c-2.78-2.78-5.47-5.73-8-8.77.76-3.22,1.65-6.7,2.76-10.84,1-3.65,2.16-7.29,3.51-10.85A108.78,108.78,0,0,1,176,52.3c3.71-1,7.46-1.84,11.15-2.51,2.94,2.47,5.78,5.08,8.46,7.76s5.34,5.58,7.81,8.53c-.71,3.68-1.56,7.4-2.55,11.09s-2.15,7.25-3.49,10.8a111.05,111.05,0,0,1-10.87,3.56c-3.68,1-7.41,1.84-11.09,2.55C172.47,91.61,169.61,89,166.89,86.27ZM193,48.86a107.39,107.39,0,0,1,12.74-1c-.21,4-.64,8.15-1.3,12.48-1.81-2-3.69-4-5.61-6S195,50.64,193,48.86Zm12.26,29.48c.68-2.55,1.3-5.12,1.86-7.68a114.16,114.16,0,0,1,6.54,9.48A110.11,110.11,0,0,1,203,85.61C203.84,83.2,204.58,80.77,205.23,78.34ZM186.85,22.5c2.82-2.2,6.94-4.62,10.55-3.65,5.41,1.45,8.51,10.54,8.43,24.47A116.32,116.32,0,0,0,188.43,45a130.19,130.19,0,0,0-13-9.4A56.1,56.1,0,0,1,186.85,22.5ZM173,39.41c3.2,2,6.4,4.23,9.57,6.68-2.57.54-5.16,1.16-7.73,1.85s-4.93,1.41-7.37,2.24A103.59,103.59,0,0,1,173,39.41Zm-37.32-8.57a4.52,4.52,0,1,1,4.52,4.52A4.53,4.53,0,0,1,135.67,30.84Zm3.69,9A9,9,0,0,0,149.17,30c5,.11,12.05,2.6,20,7.08a109.15,109.15,0,0,0-7.45,15.22,110.44,110.44,0,0,0-15.23,7.46C142,51.88,139.48,44.85,139.36,39.83ZM128.19,88.05c-1-3.6,1.46-7.72,3.66-10.54a55.46,55.46,0,0,1,13.08-11.46,126.2,126.2,0,0,0,9,12.6,140.18,140.18,0,0,0-3.08,17.83C138,96.29,129.57,93.19,128.19,88.05Zm25.54,29.67a4.52,4.52,0,1,1,4.51-4.52A4.53,4.53,0,0,1,153.73,117.72Zm22,3.58c-2.82,2.21-7,4.64-10.57,3.67-2.19-.59-4.1-2.19-5.68-4.78a9,9,0,0,0-4.27-15.9c0-1-.06-2.15,0-3.33a131,131,0,0,0,19-2.06,120.34,120.34,0,0,0,13,9.26A55.93,55.93,0,0,1,175.68,121.3Zm13.88-17A115.25,115.25,0,0,1,180,97.75c2.56-.56,5.13-1.18,7.68-1.86s4.91-1.42,7.38-2.27A104.64,104.64,0,0,1,189.56,104.34Zm31.1,7c-4.1,4.09-14.65,2.23-27.2-4.71a110,110,0,0,0,7.41-15.17,116.73,116.73,0,0,0,15-7.41C222.88,96.62,224.77,107.21,220.66,111.32Zm2.22-37.46q-2.44,2-5.42,3.9a122,122,0,0,0-9.22-12.93,133.22,133.22,0,0,0,2-17c12.71.45,21.07,3.85,22.52,9.26a7.75,7.75,0,0,1,.22,2.65,9,9,0,0,0-10.08,14.08Zm7.11-1a4.51,4.51,0,1,1,4.52-4.51A4.51,4.51,0,0,1,230,72.81Z"/><path d="M181.25,60.63a11.28,11.28,0,1,0,11.29,11.28A11.29,11.29,0,0,0,181.25,60.63Zm0,18.05A6.77,6.77,0,1,1,188,71.91,6.77,6.77,0,0,1,181.25,78.68Z"/></svg>